<?xml version="1.0" encoding="UTF-8" standalone="no"?>
<!DOCTYPE svg PUBLIC "-//W3C//DTD SVG 1.1//EN" "http://www.w3.org/Graphics/SVG/1.1/DTD/svg11.dtd">
<!-- Created with Vectornator (http://vectornator.io/) -->
<svg height="100%" stroke-miterlimit="10" style="fill-rule:nonzero;clip-rule:evenodd;stroke-linecap:round;stroke-linejoin:round;" version="1.1" viewBox="0 0 1024 1024" width="100%" xml:space="preserve" xmlns="http://www.w3.org/2000/svg" xmlns:vectornator="http://vectornator.io" xmlns:xlink="http://www.w3.org/1999/xlink">
<defs/>
<path d="M0 0L1024 0L1024 1024L0 1024L0 0Z" fill="#ffffff" fill-opacity="0" fill-rule="nonzero" opacity="1" stroke="none"/>
<g id="Слой-2" vectornator:layerName="Слой 2">
<path d="M0 100C0 44.7715 44.7715 0 100 0L924 0C979.228 0 1024 44.7715 1024 100L1024 924C1024 979.228 979.228 1024 924 1024L100 1024C44.7715 1024 0 979.228 0 924L0 100Z" fill="#2686b2" fill-rule="nonzero" opacity="1" stroke="none" vectornator:layerName="Прямоугольник 1"/>
</g>
<g id="Слой-1" vectornator:layerName="Слой 1">
<path d="M531.084 447.586C532.531 363.064 542.508 289.04 561.016 225.525C575.279 176.548 595.275 137.426 627.409 101.739C644.4 82.8746 670.92 66.1696 695.059 74.0536C717.288 81.3133 716.469 122.188 713.52 148.362C704.535 228.234 690.076 273.81 672.074 311.625C650.061 357.862 637.288 392.475 596.625 469.503" fill="#faf1e1" fill-rule="nonzero" opacity="1" stroke="none" vectornator:layerName="path"/>
<path d="M537.941 446.365C540.835 362.728 551.963 289.766 571.293 227.492C586.471 178.592 606.856 141.724 637.587 108.777C655.84 89.2075 678.26 79.1139 695.049 84.9229C706.549 88.9019 709.998 114.358 705.519 148.721C696.217 220.102 683.004 266.234 662.203 308.042C657.338 317.845 652.577 327.698 647.922 337.601L644.168 345.56C619.951 397.048 608.767 419.576 584.197 464.211C582.388 467.37 582.423 471.259 584.29 474.385C586.156 477.51 589.564 479.385 593.203 479.289C596.843 479.194 600.147 477.141 601.847 473.922C626.664 428.836 638.013 405.976 662.398 354.132L666.135 346.2C670.735 336.426 675.436 326.699 680.238 317.022C702.091 273.101 715.921 224.823 725.497 151.321C727.741 134.129 728.318 118.081 726.471 104.432C723.818 84.8222 716.204 70.9208 701.637 65.8841C675.664 56.8952 645.951 70.2761 622.86 95.0333C589.953 130.317 568.093 169.846 552.057 221.522C532.162 285.626 520.762 360.334 517.807 445.672C517.638 449.296 519.431 452.73 522.501 454.664C525.57 456.597 529.443 456.731 532.638 455.014C535.833 453.297 537.859 449.994 537.941 446.367L537.941 446.365Z" fill="#524f75" fill-rule="nonzero" opacity="1" stroke="none" vectornator:layerName="path 1"/>
<path d="M540.448 773.458L590.581 762.968C633.366 754.01 675.311 781.437 684.267 824.221C685.385 829.554 685.946 834.99 685.946 840.44C685.946 894.249 642.324 937.874 588.513 937.874L543.021 937.874C501.787 937.874 468.36 904.447 468.36 863.209L468.36 862.195C468.36 819.282 498.446 782.249 540.448 773.458Z" fill="#faf1e1" fill-rule="nonzero" opacity="1" stroke="none" vectornator:layerName="path 2"/>
<path d="M542.51 783.318C505.175 791.134 478.434 824.051 478.434 862.198L478.434 863.209C478.434 898.88 507.351 927.797 543.021 927.797L588.513 927.797C636.761 927.797 675.873 888.685 675.873 840.437C675.873 835.679 675.383 830.937 674.406 826.284C666.592 788.941 629.985 765.003 592.643 772.821L542.51 783.318ZM538.383 763.596L588.516 753.103C636.747 743.013 684.032 773.928 694.126 822.16C695.385 828.171 696.016 834.295 696.016 840.44C696.016 899.813 647.882 947.947 588.509 947.947L543.021 947.947C496.223 947.947 458.287 910.007 458.287 863.209L458.287 862.195C458.287 814.514 491.717 773.372 538.383 763.596Z" fill="#524f75" fill-rule="nonzero" opacity="1" stroke="none" vectornator:layerName="path 3"/>
<path d="M520.57 898.513C572.953 888.047 610.617 882.006 633.571 880.395C653.08 879.025 677.75 879.743 707.591 882.55C726.154 884.296 740.343 899.88 740.343 918.526C740.343 936.376 725.871 950.848 708.021 950.848L520.94 950.848C507.805 950.848 497.157 940.2 497.157 927.065C497.16 913.184 506.959 901.234 520.57 898.513Z" fill="#faf1e1" fill-rule="nonzero" opacity="1" stroke="none" vectornator:layerName="path 4"/>
<path d="M507.233 927.065C507.233 934.637 513.372 940.775 520.944 940.775L708.023 940.775C720.31 940.773 730.269 930.813 730.269 918.526C730.269 905.077 720.036 893.836 706.647 892.577C677.313 889.817 653.163 889.115 634.276 890.438C611.86 892.016 574.534 897.999 522.545 908.392C513.642 910.169 507.232 917.986 507.233 927.065ZM632.866 870.344C652.989 868.928 678.19 869.663 708.534 872.517C732.274 874.75 750.417 894.681 750.416 918.526C750.416 941.94 731.438 960.921 708.021 960.921L520.94 960.921C502.243 960.921 487.083 945.761 487.083 927.065C487.084 908.383 500.273 892.299 518.593 888.638C571.367 878.088 609.375 871.993 632.866 870.344Z" fill="#524f75" fill-rule="nonzero" opacity="1" stroke="none" vectornator:layerName="path 5"/>
<path d="M729.601 908.392L699.435 908.392C693.972 908.533 689.618 913.001 689.618 918.465C689.618 923.929 693.972 928.398 699.435 928.539L729.601 928.539C735.164 928.539 739.675 924.029 739.675 918.465C739.675 912.902 735.164 908.392 729.601 908.392Z" fill="#524f75" fill-rule="nonzero" opacity="1" stroke="none" vectornator:layerName="path 6"/>
<path d="M599.315 732.198L664.587 722.732C682.041 720.71 697.823 733.262 699.837 750.766C699.975 751.978 700.045 753.201 700.045 754.42C700.045 772.038 685.801 786.319 668.23 786.319C667.011 786.319 665.795 786.248 664.584 786.111L604.17 780.937" fill="#faf1e1" fill-rule="nonzero" opacity="1" stroke="none" vectornator:layerName="path 7"/>
<path d="M600.761 742.167L666.037 732.702C677.666 731.362 688.454 739.937 689.831 751.915C689.929 752.748 689.975 753.584 689.975 754.42C689.975 766.481 680.238 776.246 668.234 776.246C667.404 776.246 666.574 776.198 665.749 776.102L605.033 770.896C599.49 770.42 594.611 774.53 594.14 780.074C593.663 785.616 597.772 790.493 603.314 790.966L663.728 796.141C665.027 796.299 666.628 796.389 668.234 796.389C691.375 796.389 710.123 777.592 710.123 754.417C710.123 752.808 710.032 751.206 709.847 749.608C707.198 726.587 686.42 710.063 663.435 712.726L597.871 722.228C592.365 723.027 588.549 728.138 589.347 733.644C590.146 739.149 595.256 742.965 600.761 742.167Z" fill="#524f75" fill-rule="nonzero" opacity="1" stroke="none" vectornator:layerName="path 8"/>
<path d="M258.497 793.031L265.212 793.031C288.392 793.031 307.185 811.824 307.185 835.004C307.185 858.182 288.392 876.976 265.212 876.976L258.497 876.976C235.318 876.976 216.524 858.182 216.524 835.004C216.524 811.824 235.318 793.031 258.497 793.031Z" fill="#faf1e1" fill-rule="nonzero" opacity="1" stroke="none" vectornator:layerName="path 9"/>
<path d="M258.497 803.105C240.88 803.105 226.598 817.387 226.598 835.004C226.598 852.621 240.88 866.903 258.497 866.903L265.212 866.903C282.83 866.903 297.111 852.621 297.111 835.004C297.111 817.387 282.83 803.105 265.212 803.105L258.497 803.105ZM258.497 782.958L265.212 782.958C293.959 782.958 317.259 806.257 317.259 835.004C317.259 863.75 293.959 887.05 265.212 887.05L258.497 887.05C229.751 887.05 206.451 863.75 206.451 835.004C206.451 806.257 229.751 782.958 258.497 782.958Z" fill="#524f75" fill-rule="nonzero" opacity="1" stroke="none" vectornator:layerName="path 10"/>
<path d="M648.443 386.74C590.312 367.836 542.991 366.338 483.537 379.027C424.084 391.716 341.24 444.198 324.205 538.784L323.353 543.516C321.818 552.046 321.044 560.696 321.043 569.364C321.043 603.899 347.593 651.848 375.725 678.5C330.23 697.183 285.198 732.53 270.672 781.729C268.165 790.22 266.891 799.029 266.891 807.882C266.891 859.022 308.464 900.482 359.745 900.482L562.083 900.482C571.67 900.482 581.199 898.97 590.309 895.999C638.003 880.451 664.03 829.292 648.44 781.732C640.332 756.955 626.693 734.347 608.556 715.62L681.809 715.62C692.799 715.62 703.732 714.122 714.316 711.161C778.31 693.257 812.227 629.274 806.968 565.298L801.032 534.07C780.361 460.598 706.573 405.644 648.443 386.74" fill="#faf1e1" fill-rule="nonzero" opacity="1" stroke="none" vectornator:layerName="path 11"/>
<path d="M658.016 778.593C675.339 831.451 646.417 888.306 593.431 905.572C583.309 908.87 572.729 910.551 562.083 910.551L359.745 910.551C302.908 910.554 256.818 864.593 256.818 807.886C256.818 798.064 258.229 788.297 261.012 778.878C274.054 734.709 310.801 698.083 358.51 675.142C331.633 644.781 310.973 601.294 310.973 569.364C310.973 560.097 311.799 550.849 313.44 541.733L314.291 536.998C322.624 490.714 346.404 451.22 381.322 420.62C410.955 394.654 447.468 376.424 481.432 369.175C543.673 355.891 592.696 358.016 651.559 377.159C722.321 400.174 791.123 461.652 810.729 531.34L816.961 563.938C822.922 636.416 783.148 702.364 717.029 720.858C705.564 724.065 693.714 725.691 681.809 725.691L630.397 725.691C642.454 741.683 651.786 759.558 658.016 778.593ZM791.217 536.384C773.447 473.962 710.002 417.35 645.326 396.319C589.896 378.291 544.468 376.32 485.639 388.879C455.026 395.413 421.636 412.078 394.602 435.77C362.982 463.482 341.609 498.978 334.121 540.567L333.269 545.299C331.839 553.24 331.119 561.295 331.12 569.364C331.12 599.141 354.661 644.669 382.655 671.186L393.964 681.898L379.553 687.818C330.562 707.934 292.619 742.969 280.333 784.579C278.1 792.145 276.965 799.992 276.965 807.88C276.965 853.452 314.022 890.408 359.745 890.408L562.083 890.408C570.612 890.408 579.083 889.061 587.19 886.418C629.595 872.598 652.728 827.133 638.873 784.869C631.24 761.54 618.396 740.255 601.316 722.628L584.778 705.547L681.809 705.547C691.882 705.547 701.902 704.173 711.603 701.457C767.692 685.763 801.905 629.261 796.965 566.648L791.217 536.384Z" fill="#524f75" fill-rule="nonzero" opacity="1" stroke="none" vectornator:layerName="path 12"/>
<path d="M589.819 759.454C612.698 759.454 631.448 777.626 632.164 800.499L632.859 822.772C633.766 851.789 610.976 876.046 581.962 876.953C581.418 876.97 580.867 876.979 580.323 876.979C555.596 876.979 535.55 856.933 535.55 832.207C535.55 829.36 535.818 826.522 536.359 823.728L540.98 799.777C545.491 776.368 565.979 759.452 589.819 759.454ZM656.612 574.773L710.24 574.773C736.203 574.773 757.249 595.82 757.249 621.782C757.249 624.949 756.927 628.112 756.292 631.221L756.161 631.856C749.356 665.085 720.116 688.941 686.198 688.939L681.017 688.939C646.973 688.937 617.561 665.147 610.442 631.856C604.993 606.357 621.244 581.268 646.743 575.817C649.987 575.123 653.295 574.773 656.612 574.773Z" fill="#ffffff" fill-rule="nonzero" opacity="1" stroke="none" vectornator:layerName="path 13"/>
<path d="M704.061 581.489C710.139 581.536 717.15 582.718 725.101 585.045C733.368 587.372 740.343 592.305 740.343 601.397C740.343 602.049 740.299 602.707 740.215 603.359C738.835 613.872 729.087 621.782 717.506 621.782L697.188 621.782C684.781 621.782 673.871 614.268 670.443 603.359C668.035 595.693 672.884 587.702 681.259 585.495C683.575 584.881 692.245 581.405 704.061 581.489Z" fill="#ffb8a8" fill-rule="nonzero" opacity="1" stroke="none" vectornator:layerName="path 14"/>
<path d="M690.371 593.295C688.482 593.782 683.999 595.19 683.831 595.232C680.836 596.022 679.429 598.346 680.057 600.339C682.125 606.931 689.066 611.713 697.191 611.713L717.509 611.713C724.188 611.713 729.531 607.378 730.229 602.049C730.258 601.834 730.273 601.618 730.273 601.401C730.273 598.473 728.05 596.341 722.278 594.716C715.169 592.637 703.994 591.566 703.994 591.566C703.994 591.566 694.817 592.124 690.371 593.295ZM727.834 575.345C741.28 579.135 750.416 587.889 750.416 601.397C750.416 602.489 750.345 603.583 750.205 604.668C748.146 620.37 733.987 631.86 717.509 631.86L697.191 631.86C680.496 631.86 665.621 621.608 660.837 606.378C656.653 593.046 664.933 579.38 678.697 575.754C680.897 575.037 683.116 574.379 685.352 573.783C691.484 572.178 697.8 571.383 704.139 571.419C711.227 571.47 719.141 572.806 727.834 575.345Z" fill="#524f75" fill-rule="nonzero" opacity="1" stroke="none" vectornator:layerName="path 15"/>
<path d="M689.985 515.542C689.985 544.027 713.077 567.118 741.561 567.118C770.046 567.118 793.137 544.027 793.137 515.542C793.137 487.057 770.046 463.966 741.561 463.966C713.077 463.966 689.985 487.057 689.985 515.542Z" fill="#ffffff" fill-rule="nonzero" opacity="1" stroke="none" vectornator:layerName="path 16"/>
<path d="M741.561 577.194C707.51 577.194 679.902 549.59 679.902 515.542C679.902 481.494 707.51 453.892 741.561 453.892C775.613 453.892 803.221 481.494 803.221 515.542C803.224 549.59 775.616 577.194 741.561 577.194ZM741.561 557.048C764.488 557.048 783.074 538.465 783.074 515.545C783.074 492.625 764.488 474.04 741.561 474.04C718.634 474.04 700.049 492.621 700.049 515.542C700.049 538.462 718.634 557.048 741.561 557.048Z" fill="#524f75" fill-rule="nonzero" opacity="1" stroke="none" vectornator:layerName="path 17"/>
<path d="M754.442 531.673C759.667 537.721 768.462 539.182 775.361 535.146C782.26 531.112 785.299 522.729 782.588 515.21C779.877 507.692 772.188 503.176 764.301 504.473C756.414 505.769 750.575 512.507 750.412 520.498L762.706 522.284L754.442 531.673Z" fill="#524f75" fill-rule="nonzero" opacity="1" stroke="none" vectornator:layerName="path 18"/>
<path d="M582.536 516.304C582.536 547.064 607.471 572 638.231 572C668.992 572 693.928 547.064 693.928 516.304C693.928 485.544 668.992 460.608 638.231 460.608C607.471 460.608 582.536 485.544 582.536 516.304Z" fill="#ffffff" fill-rule="nonzero" opacity="1" stroke="none" vectornator:layerName="path 19"/>
<path d="M638.231 582.074C601.903 582.074 572.452 552.625 572.452 516.301C572.452 479.979 601.903 450.535 638.231 450.535C674.56 450.535 704.011 479.979 704.011 516.301C704.011 552.625 674.56 582.074 638.231 582.074ZM638.231 561.927C663.435 561.927 683.864 541.498 683.864 516.304C683.864 491.11 663.435 470.682 638.231 470.682C613.028 470.682 592.599 491.107 592.599 516.301C592.599 541.495 613.028 561.927 638.231 561.927Z" fill="#524f75" fill-rule="nonzero" opacity="1" stroke="none" vectornator:layerName="path 20"/>
<path d="M642.503 536.592C645.843 540.464 650.705 542.689 655.819 542.683C665.533 542.683 673.408 534.808 673.408 525.094C673.408 515.381 665.533 507.506 655.819 507.506C646.244 507.506 638.427 515.165 638.231 524.738L651.277 526.633L642.503 536.592Z" fill="#524f75" fill-rule="nonzero" opacity="1" stroke="none" vectornator:layerName="path 21"/>
<path d="M696.691 635.214L696.691 658.719C696.832 664.181 701.301 668.535 706.765 668.535C712.229 668.535 716.697 664.181 716.838 658.719L716.838 635.214C716.697 629.752 712.229 625.398 706.765 625.398C701.301 625.398 696.832 629.752 696.691 635.214Z" fill="#524f75" fill-rule="nonzero" opacity="1" stroke="none" vectornator:layerName="path 22"/>
<path d="M486.217 826.891C487.292 832.065 487.832 837.337 487.832 842.622C487.832 895.371 444.805 938.129 391.725 938.129L343.843 938.129C303.199 938.129 270.249 905.384 270.249 864.993L270.249 861.698C270.249 833.728 283.832 808.4 305.345 792.608" fill="#faf1e1" fill-rule="nonzero" opacity="1" stroke="none" vectornator:layerName="path 23"/>
<path d="M476.355 828.937C477.292 833.442 477.762 838.025 477.762 842.622C477.762 889.793 439.258 928.055 391.728 928.055L343.843 928.055C308.747 928.055 280.323 899.806 280.323 864.993L280.323 861.698C280.323 837.472 291.934 814.944 311.305 800.731C314.267 798.625 315.865 795.086 315.487 791.47C315.108 787.856 312.811 784.725 309.476 783.279C306.142 781.833 302.287 782.295 299.388 784.488C274.886 802.47 260.176 830.998 260.176 861.695L260.176 864.989C260.176 910.958 297.649 948.199 343.843 948.199L391.728 948.199C450.355 948.199 497.908 900.945 497.908 842.62C497.908 836.649 497.298 830.686 496.082 824.84C494.951 819.392 489.618 815.893 484.171 817.024C478.722 818.156 475.224 823.489 476.355 828.937Z" fill="#524f75" fill-rule="nonzero" opacity="1" stroke="none" vectornator:layerName="path 24"/>
<path d="M322.01 899.638C374.623 889.323 412.442 883.369 435.464 881.788C455.117 880.435 480.015 881.157 510.154 883.96C528.332 885.655 542.231 900.909 542.232 919.164C542.232 936.663 528.046 950.848 510.547 950.848L322.359 950.848C309.485 950.848 299.05 940.412 299.05 927.539C299.048 913.944 308.67 902.252 322.01 899.638Z" fill="#faf1e1" fill-rule="nonzero" opacity="1" stroke="none" vectornator:layerName="path 25"/>
<path d="M309.122 927.539C309.12 934.849 315.048 940.777 322.359 940.775L510.547 940.775C522.483 940.775 532.158 931.099 532.158 919.164C532.161 906.107 522.219 895.198 509.217 893.99C479.575 891.234 455.198 890.522 436.152 891.831C413.658 893.383 376.178 899.279 323.944 909.521C315.331 911.21 309.12 918.762 309.122 927.539ZM434.769 871.735C455.029 870.338 480.444 871.08 511.084 873.928C534.441 876.104 552.305 895.703 552.305 919.164C552.305 942.229 533.609 960.921 510.547 960.921L322.359 960.921C303.922 960.921 288.976 945.976 288.976 927.539C288.976 909.131 302.004 893.296 320.072 889.753C373.069 879.36 411.224 873.356 434.769 871.735Z" fill="#524f75" fill-rule="nonzero" opacity="1" stroke="none" vectornator:layerName="path 26"/>
<path d="M531.49 909.037L501.324 909.037C495.76 909.037 491.25 913.546 491.25 919.11C491.25 924.674 495.76 929.183 501.324 929.183L531.49 929.183C536.952 929.043 541.307 924.575 541.307 919.11C541.307 913.646 536.952 909.178 531.49 909.037Z" fill="#524f75" fill-rule="nonzero" opacity="1" stroke="none" vectornator:layerName="path 27"/>
<path d="M373.751 690.288C379.758 695.192 383.925 698.566 386.285 700.436C391.741 704.764 396.637 707.756 401.194 709.382C404.596 710.642 408.412 709.978 411.187 707.639C413.96 705.302 415.264 701.654 414.598 698.087C413.932 694.522 411.4 691.589 407.97 690.409C405.808 689.641 402.682 687.727 398.803 684.651C394.678 681.353 390.573 678.028 386.49 674.679C382.18 671.16 375.832 671.804 372.315 676.114C368.797 680.424 369.439 686.771 373.751 690.288Z" fill="#524f75" fill-rule="nonzero" opacity="1" stroke="none" vectornator:layerName="path 28"/>
<path d="M445.225 490.573L442.082 486.382M426.777 465.427C386.167 411.578 354.778 359.488 332.611 309.154C312.057 262.487 302.662 215.149 304.429 167.146C305.359 141.761 321.217 119.26 344.88 109.744C366.672 100.98 391.611 107.393 406.352 125.553C454.385 184.738 485.092 245.886 492.775 284.77C500.578 324.285 509.093 361.906 523.281 427.322" fill="#faf1e1" fill-rule="nonzero" opacity="1" stroke="none" vectornator:layerName="path 29"/>
<path d="M361.312 95.8158C354.619 96.2271 347.911 97.7097 341.439 100.311C314.09 111.312 295.76 137.329 294.679 166.692C292.858 216.244 302.553 265.07 323.71 313.11C346.21 364.196 377.986 416.98 419.038 471.417C422.388 475.859 428.714 476.741 433.155 473.392C437.596 470.043 438.479 463.717 435.129 459.275C394.97 406.024 363.99 354.586 342.154 305.001C322.209 259.705 313.097 213.911 314.803 167.449C315.592 146.046 328.981 127.039 348.96 119.007C366.662 111.889 386.876 117.097 398.83 131.822C443.315 186.631 475.346 246.889 483.194 286.642C483.59 288.663 484.006 290.692 484.412 292.734C485.745 299.382 487.126 306.147 488.613 313.278C491.528 327.263 494.656 341.835 499.495 364.03L506.091 394.238C508.962 407.398 511.3 418.14 513.737 429.362C514.442 432.936 517.039 435.875 520.502 437.008C523.964 438.142 527.775 437.288 530.459 434.824C533.142 432.359 534.279 428.664 533.442 425.118C531.007 413.886 528.669 403.074 525.795 389.911L519.199 359.745C515.505 342.911 511.892 326.072 508.359 309.203C506.882 302.118 505.481 295.383 504.158 288.784C503.751 286.763 503.378 284.739 502.982 282.734C494.42 239.362 460.89 176.286 414.502 119.133C401.35 102.935 381.39 94.5819 361.312 95.8158Z" fill="#524f75" fill-rule="nonzero" opacity="1" stroke="none" vectornator:layerName="Кривая 1"/>
<path d="M374.012 204.024C385.363 199.05 398.638 203.392 404.857 214.111C430.141 257.679 445.705 291.321 451.564 315.037C457.866 340.563 469.696 382.119 487.046 439.698C488.811 445.559 486.053 451.832 480.542 454.493C474.722 457.304 467.77 456.231 463.068 451.797C421.209 412.353 392.276 374.45 376.258 338.082C362.166 306.088 354.718 271.906 353.912 235.531C353.611 221.927 361.549 209.485 374.012 204.024Z" fill="#ffb8a8" fill-rule="nonzero" opacity="1" stroke="none" vectornator:layerName="path 30"/>
<path d="M516.151 635.469C532.41 624.086 554.82 628.038 566.203 644.297C567.244 645.774 568.164 647.336 568.967 648.951L626.667 765.383C630.7 773.525 628.181 783.392 620.741 788.606C613.339 793.786 603.242 792.666 597.156 785.99L510.054 690.363C496.374 675.347 497.455 652.083 512.472 638.411C513.64 637.353 514.865 636.365 516.151 635.469Z" fill="#ff7e3c" fill-rule="nonzero" opacity="1" stroke="none" vectornator:layerName="path 31"/>
<path d="M520 640.972C512.919 645.928 508.315 653.691 507.363 662.281C506.41 670.87 509.202 679.453 515.023 685.84L602.125 781.463C605.933 785.645 612.254 786.347 616.886 783.102C621.611 779.797 623.211 773.534 620.65 768.368L562.949 651.932C559.168 644.3 552.245 638.697 543.991 636.591C535.737 634.485 526.976 636.085 520 640.972ZM512.297 629.966C531.59 616.457 558.195 621.145 571.707 640.442C572.935 642.199 574.034 644.048 574.984 645.969L632.685 762.401C638.193 773.518 634.753 786.991 624.588 794.106C614.422 801.225 600.549 799.684 592.192 790.506L505.091 694.889C488.916 677.126 490.196 649.62 507.956 633.444C509.328 632.189 510.775 631.027 512.297 629.966Z" fill="#524f75" fill-rule="nonzero" opacity="1" stroke="none" vectornator:layerName="path 32"/>
<path d="M431.659 611.082C434.02 606.838 438.068 603.793 442.801 602.704C447.532 601.615 452.505 602.582 456.484 605.367L506.629 640.435L501.196 652.443L440.55 633.391C436.109 631.993 432.532 628.672 430.809 624.347C429.085 620.022 429.397 615.152 431.659 611.082Z" fill="#62cca3" fill-rule="nonzero" opacity="1" stroke="none" vectornator:layerName="path 33"/>
<path d="M452.252 611.196C449.802 609.544 446.766 609.01 443.899 609.724C441.031 610.437 438.6 612.333 437.209 614.94C435.971 617.265 435.842 620.026 436.86 622.456C437.878 624.887 439.934 626.732 442.461 627.481L503.429 645.472L495.367 649.253L500.589 637.158L502.999 645.385L452.252 611.196ZM457.659 598.802C458.38 599.185 459.079 599.604 459.757 600.062L515.128 637.367L505.343 660.042L438.664 640.369C432.261 638.478 427.05 633.809 424.47 627.653C421.89 621.496 422.217 614.506 425.36 608.617C431.57 596.987 446.032 592.593 457.662 598.802L457.659 598.802Z" fill="#524f75" fill-rule="nonzero" opacity="1" stroke="none" vectornator:layerName="path 34"/>
<path d="M516.974 546.911C512.179 547.676 507.934 550.438 505.291 554.513C502.649 558.586 501.857 563.589 503.113 568.28L518.916 627.391L532.055 626.393L534.895 562.89C535.101 558.239 533.205 553.742 529.731 550.642C526.256 547.544 521.571 546.172 516.974 546.907L516.974 546.911Z" fill="#62cca3" fill-rule="nonzero" opacity="1" stroke="none" vectornator:layerName="path 35"/>
<path d="M528.935 563.975C528.935 563.619 528.915 563.263 528.871 562.91C528.278 557.175 523.149 553.006 517.414 553.599C514.79 553.868 512.426 555.305 510.98 557.512C509.533 559.717 509.158 562.458 509.956 564.973L529.136 625.574L521.493 621.001L534.441 618.566L528.969 625.168L528.935 563.975ZM516.034 540.239C522.755 539.541 529.457 541.725 534.476 546.25C539.496 550.774 542.362 557.214 542.363 563.971L542.396 630.735L518.123 635.298L497.153 569.022C495.139 562.658 496.095 555.726 499.756 550.145C503.417 544.564 509.395 540.926 516.034 540.239Z" fill="#524f75" fill-rule="nonzero" opacity="1" stroke="none" vectornator:layerName="path 36"/>
<path d="M459.344 564.663C464.588 560.42 471.48 558.8 478.064 560.261C484.649 561.724 490.209 566.108 493.164 572.171L521.662 630.647L511.823 639.405L459.733 599.165C454.412 595.053 451.264 588.733 451.188 582.009C451.112 575.284 454.117 568.894 459.344 564.663Z" fill="#62cca3" fill-rule="nonzero" opacity="1" stroke="none" vectornator:layerName="path 37"/>
<path d="M487.117 575.123C484.783 570.335 480.143 567.09 474.845 566.542C469.547 565.994 464.341 568.22 461.077 572.43C455.924 579.107 457.157 588.696 463.83 593.853L511.511 630.691L513.388 629.019L487.117 575.123ZM455.117 559.441C461.953 553.916 470.934 551.808 479.514 553.716C488.095 555.623 495.337 561.339 499.188 569.24L529.918 632.286L512.109 648.128L455.617 604.483C448.67 599.116 444.561 590.864 444.462 582.087C444.365 573.308 448.288 564.967 455.113 559.445L455.117 559.441Z" fill="#524f75" fill-rule="nonzero" opacity="1" stroke="none" vectornator:layerName="path 38"/>
<path d="M503.04 724.418L568.997 725.277C586.552 726.012 600.174 740.878 599.426 758.476C599.374 759.697 599.252 760.915 599.063 762.122C596.31 779.523 580.004 791.399 562.651 788.649C561.448 788.457 560.257 788.197 559.084 787.87L500.222 773.311" fill="#faf1e1" fill-rule="nonzero" opacity="1" stroke="none" vectornator:layerName="path 39"/>
<path d="M502.573 735.3L568.53 735.009C580.236 735.3 589.725 745.293 589.419 757.345C589.399 758.184 589.332 759.017 589.215 759.846C587.536 771.789 576.532 780.1 564.649 778.432C563.825 778.316 563.009 778.153 562.204 777.941L502.808 764.338C499.277 763.474 495.555 764.58 493.068 767.23C490.58 769.88 489.715 773.665 490.801 777.134C491.887 780.602 494.757 783.217 498.312 783.976L557.419 797.511C558.682 797.846 560.256 798.159 561.848 798.383C584.759 801.604 605.94 785.593 609.166 762.647C609.388 761.055 609.519 759.454 609.559 757.845C610.144 734.679 591.867 715.426 568.735 714.858L502.485 715.147C496.92 715.171 492.428 719.702 492.452 725.267C492.477 730.833 497.007 735.324 502.573 735.3Z" fill="#524f75" fill-rule="nonzero" opacity="1" stroke="none" vectornator:layerName="path 40"/>
</g>
</svg>
